<?xml version="1.0" encoding="UTF-8"?>
<!DOCTYPE svg PUBLIC "-//W3C//DTD SVG 1.1//EN" "http://www.w3.org/Graphics/SVG/1.1/DTD/svg11.dtd">
<svg width="299mm" height="135mm" viewBox="0 0 29900 13500">
 <path fill="rgb(255,255,255)" stroke="none" d="M 14932,13216 L 0,13216 0,-314 29864,-314 29864,13216 14932,13216 Z"/>
 <path fill="none" stroke="rgb(179,179,179)" stroke-linejoin="round" d="M 14373,10386 L 2285,10386 2285,1100 26460,1100 26460,10386 14373,10386 Z"/>
 <path fill="none" stroke="rgb(179,179,179)" stroke-linejoin="round" d="M 26460,10385 L 2285,10385"/>
 <path fill="none" stroke="rgb(179,179,179)" stroke-linejoin="round" d="M 26460,8837 L 2285,8837"/>
 <path fill="none" stroke="rgb(179,179,179)" stroke-linejoin="round" d="M 26460,7289 L 2285,7289"/>
 <path fill="none" stroke="rgb(179,179,179)" stroke-linejoin="round" d="M 26460,5742 L 2285,5742"/>
 <path fill="none" stroke="rgb(179,179,179)" stroke-linejoin="round" d="M 26460,4194 L 2285,4194"/>
 <path fill="none" stroke="rgb(179,179,179)" stroke-linejoin="round" d="M 26460,2646 L 2285,2646"/>
 <path fill="none" stroke="rgb(179,179,179)" stroke-linejoin="round" d="M 26460,1099 L 2285,1099"/>
 <path fill="none" stroke="rgb(179,179,179)" stroke-linejoin="round" d="M 2285,10535 L 2285,10385"/>
 <path fill="none" stroke="rgb(179,179,179)" stroke-linejoin="round" d="M 2285,10535 L 2285,10385"/>
 <path fill="none" stroke="rgb(179,179,179)" stroke-linejoin="round" d="M 3336,10535 L 3336,10385"/>
 <path fill="none" stroke="rgb(179,179,179)" stroke-linejoin="round" d="M 3336,10535 L 3336,10385"/>
 <path fill="none" stroke="rgb(179,179,179)" stroke-linejoin="round" d="M 4387,10535 L 4387,10385"/>
 <path fill="none" stroke="rgb(179,179,179)" stroke-linejoin="round" d="M 4387,10535 L 4387,10385"/>
 <path fill="none" stroke="rgb(179,179,179)" stroke-linejoin="round" d="M 5438,10535 L 5438,10385"/>
 <path fill="none" stroke="rgb(179,179,179)" stroke-linejoin="round" d="M 5438,10535 L 5438,10385"/>
 <path fill="none" stroke="rgb(179,179,179)" stroke-linejoin="round" d="M 6489,10535 L 6489,10385"/>
 <path fill="none" stroke="rgb(179,179,179)" stroke-linejoin="round" d="M 6489,10535 L 6489,10385"/>
 <path fill="none" stroke="rgb(179,179,179)" stroke-linejoin="round" d="M 7540,10535 L 7540,10385"/>
 <path fill="none" stroke="rgb(179,179,179)" stroke-linejoin="round" d="M 7540,10535 L 7540,10385"/>
 <path fill="none" stroke="rgb(179,179,179)" stroke-linejoin="round" d="M 8591,10535 L 8591,10385"/>
 <path fill="none" stroke="rgb(179,179,179)" stroke-linejoin="round" d="M 8591,10535 L 8591,10385"/>
 <path fill="none" stroke="rgb(179,179,179)" stroke-linejoin="round" d="M 9642,10535 L 9642,10385"/>
 <path fill="none" stroke="rgb(179,179,179)" stroke-linejoin="round" d="M 9642,10535 L 9642,10385"/>
 <path fill="none" stroke="rgb(179,179,179)" stroke-linejoin="round" d="M 10694,10535 L 10694,10385"/>
 <path fill="none" stroke="rgb(179,179,179)" stroke-linejoin="round" d="M 10694,10535 L 10694,10385"/>
 <path fill="none" stroke="rgb(179,179,179)" stroke-linejoin="round" d="M 11745,10535 L 11745,10385"/>
 <path fill="none" stroke="rgb(179,179,179)" stroke-linejoin="round" d="M 11745,10535 L 11745,10385"/>
 <path fill="none" stroke="rgb(179,179,179)" stroke-linejoin="round" d="M 12796,10535 L 12796,10385"/>
 <path fill="none" stroke="rgb(179,179,179)" stroke-linejoin="round" d="M 12796,10535 L 12796,10385"/>
 <path fill="none" stroke="rgb(179,179,179)" stroke-linejoin="round" d="M 13847,10535 L 13847,10385"/>
 <path fill="none" stroke="rgb(179,179,179)" stroke-linejoin="round" d="M 13847,10535 L 13847,10385"/>
 <path fill="none" stroke="rgb(179,179,179)" stroke-linejoin="round" d="M 14898,10535 L 14898,10385"/>
 <path fill="none" stroke="rgb(179,179,179)" stroke-linejoin="round" d="M 14898,10535 L 14898,10385"/>
 <path fill="none" stroke="rgb(179,179,179)" stroke-linejoin="round" d="M 15948,10535 L 15948,10385"/>
 <path fill="none" stroke="rgb(179,179,179)" stroke-linejoin="round" d="M 15948,10535 L 15948,10385"/>
 <path fill="none" stroke="rgb(179,179,179)" stroke-linejoin="round" d="M 16999,10535 L 16999,10385"/>
 <path fill="none" stroke="rgb(179,179,179)" stroke-linejoin="round" d="M 16999,10535 L 16999,10385"/>
 <path fill="none" stroke="rgb(179,179,179)" stroke-linejoin="round" d="M 18050,10535 L 18050,10385"/>
 <path fill="none" stroke="rgb(179,179,179)" stroke-linejoin="round" d="M 18050,10535 L 18050,10385"/>
 <path fill="none" stroke="rgb(179,179,179)" stroke-linejoin="round" d="M 19102,10535 L 19102,10385"/>
 <path fill="none" stroke="rgb(179,179,179)" stroke-linejoin="round" d="M 19102,10535 L 19102,10385"/>
 <path fill="none" stroke="rgb(179,179,179)" stroke-linejoin="round" d="M 20153,10535 L 20153,10385"/>
 <path fill="none" stroke="rgb(179,179,179)" stroke-linejoin="round" d="M 20153,10535 L 20153,10385"/>
 <path fill="none" stroke="rgb(179,179,179)" stroke-linejoin="round" d="M 21204,10535 L 21204,10385"/>
 <path fill="none" stroke="rgb(179,179,179)" stroke-linejoin="round" d="M 21204,10535 L 21204,10385"/>
 <path fill="none" stroke="rgb(179,179,179)" stroke-linejoin="round" d="M 22255,10535 L 22255,10385"/>
 <path fill="none" stroke="rgb(179,179,179)" stroke-linejoin="round" d="M 22255,10535 L 22255,10385"/>
 <path fill="none" stroke="rgb(179,179,179)" stroke-linejoin="round" d="M 23306,10535 L 23306,10385"/>
 <path fill="none" stroke="rgb(179,179,179)" stroke-linejoin="round" d="M 23306,10535 L 23306,10385"/>
 <path fill="none" stroke="rgb(179,179,179)" stroke-linejoin="round" d="M 24357,10535 L 24357,10385"/>
 <path fill="none" stroke="rgb(179,179,179)" stroke-linejoin="round" d="M 24357,10535 L 24357,10385"/>
 <path fill="none" stroke="rgb(179,179,179)" stroke-linejoin="round" d="M 25408,10535 L 25408,10385"/>
 <path fill="none" stroke="rgb(179,179,179)" stroke-linejoin="round" d="M 25408,10535 L 25408,10385"/>
 <path fill="none" stroke="rgb(179,179,179)" stroke-linejoin="round" d="M 26460,10535 L 26460,10385"/>
 <path fill="none" stroke="rgb(179,179,179)" stroke-linejoin="round" d="M 26460,10535 L 26460,10385"/>
 <path fill="none" stroke="rgb(179,179,179)" stroke-linejoin="round" d="M 2285,10385 L 26460,10385"/>
 <path fill="none" stroke="rgb(179,179,179)" stroke-linejoin="round" d="M 2135,10385 L 2285,10385"/>
 <path fill="none" stroke="rgb(179,179,179)" stroke-linejoin="round" d="M 2135,10385 L 2285,10385"/>
 <path fill="none" stroke="rgb(179,179,179)" stroke-linejoin="round" d="M 2135,8837 L 2285,8837"/>
 <path fill="none" stroke="rgb(179,179,179)" stroke-linejoin="round" d="M 2135,8837 L 2285,8837"/>
 <path fill="none" stroke="rgb(179,179,179)" stroke-linejoin="round" d="M 2135,7289 L 2285,7289"/>
 <path fill="none" stroke="rgb(179,179,179)" stroke-linejoin="round" d="M 2135,7289 L 2285,7289"/>
 <path fill="none" stroke="rgb(179,179,179)" stroke-linejoin="round" d="M 2135,5742 L 2285,5742"/>
 <path fill="none" stroke="rgb(179,179,179)" stroke-linejoin="round" d="M 2135,5742 L 2285,5742"/>
 <path fill="none" stroke="rgb(179,179,179)" stroke-linejoin="round" d="M 2135,4194 L 2285,4194"/>
 <path fill="none" stroke="rgb(179,179,179)" stroke-linejoin="round" d="M 2135,4194 L 2285,4194"/>
 <path fill="none" stroke="rgb(179,179,179)" stroke-linejoin="round" d="M 2135,2646 L 2285,2646"/>
 <path fill="none" stroke="rgb(179,179,179)" stroke-linejoin="round" d="M 2135,2646 L 2285,2646"/>
 <path fill="none" stroke="rgb(179,179,179)" stroke-linejoin="round" d="M 2135,1099 L 2285,1099"/>
 <path fill="none" stroke="rgb(179,179,179)" stroke-linejoin="round" d="M 2135,1099 L 2285,1099"/>
 <path fill="none" stroke="rgb(179,179,179)" stroke-linejoin="round" d="M 2285,10385 L 2285,1099"/>
 <path fill="rgb(0,69,134)" stroke="none" d="M 25671,10385 L 26197,10385 26197,7289 25671,7289 25671,10385 Z"/>
 <path fill="rgb(0,69,134)" stroke="none" d="M 24620,10385 L 25146,10385 25146,3304 24620,3304 24620,10385 Z"/>
 <path fill="rgb(0,69,134)" stroke="none" d="M 23569,10385 L 24094,10385 24094,2453 23569,2453 23569,10385 Z"/>
 <path fill="rgb(0,69,134)" stroke="none" d="M 22518,10385 L 23043,10385 23043,5974 22518,5974 22518,10385 Z"/>
 <path fill="rgb(0,69,134)" stroke="none" d="M 21467,10385 L 21992,10385 21992,9378 21467,9378 21467,10385 Z"/>
 <path fill="rgb(0,69,134)" stroke="none" d="M 20416,10385 L 20941,10385 20941,9456 20416,9456 20416,10385 Z"/>
 <path fill="rgb(0,69,134)" stroke="none" d="M 19364,10385 L 19890,10385 19890,9417 19364,9417 19364,10385 Z"/>
 <path fill="rgb(0,69,134)" stroke="none" d="M 18313,10385 L 18839,10385 18839,8643 18313,8643 18313,10385 Z"/>
 <path fill="rgb(0,69,134)" stroke="none" d="M 17262,10385 L 17788,10385 17788,6129 17262,6129 17262,10385 Z"/>
 <path fill="rgb(0,69,134)" stroke="none" d="M 16211,10385 L 16737,10385 16737,6361 16211,6361 16211,10385 Z"/>
 <path fill="rgb(0,69,134)" stroke="none" d="M 15160,10385 L 15685,10385 15685,7289 15160,7289 15160,10385 Z"/>
 <path fill="rgb(0,69,134)" stroke="none" d="M 14110,10385 L 14635,10385 14635,6322 14110,6322 14110,10385 Z"/>
 <path fill="rgb(0,69,134)" stroke="none" d="M 13059,10385 L 13584,10385 13584,4976 13059,4976 13059,10385 Z"/>
 <path fill="rgb(0,69,134)" stroke="none" d="M 12007,10385 L 12533,10385 12533,6631 12007,6631 12007,10385 Z"/>
 <path fill="rgb(0,69,134)" stroke="none" d="M 10956,10385 L 11482,10385 11482,7250 10956,7250 10956,10385 Z"/>
 <path fill="rgb(0,69,134)" stroke="none" d="M 9905,10385 L 10431,10385 10431,5858 9905,5858 9905,10385 Z"/>
 <path fill="rgb(0,69,134)" stroke="none" d="M 8854,10385 L 9380,10385 9380,6052 8854,6052 8854,10385 Z"/>
 <path fill="rgb(0,69,134)" stroke="none" d="M 7803,10385 L 8329,10385 8329,5696 7803,5696 7803,10385 Z"/>
 <path fill="rgb(0,69,134)" stroke="none" d="M 6752,10385 L 7277,10385 7277,5935 6752,5935 6752,10385 Z"/>
 <path fill="rgb(0,69,134)" stroke="none" d="M 5701,10385 L 6226,10385 6226,4310 5701,4310 5701,10385 Z"/>
 <path fill="rgb(0,69,134)" stroke="none" d="M 4650,10385 L 5175,10385 5175,7444 4650,7444 4650,10385 Z"/>
 <path fill="rgb(0,69,134)" stroke="none" d="M 3598,10385 L 4124,10385 4124,8991 3598,8991 3598,10385 Z"/>
 <text class="TextShape"><tspan class="TextParagraph" font-family="Arial" font-size="353px" font-weight="400"><tspan class="TextPosition" x="1850" y="10506"><tspan fill="rgb(0,0,0)" stroke="none">0</tspan></tspan></tspan></text>
 <text class="TextShape"><tspan class="TextParagraph" font-family="Arial" font-size="353px" font-weight="400"><tspan class="TextPosition" x="1665" y="8958"><tspan fill="rgb(0,0,0)" stroke="none">20</tspan></tspan></tspan></text>
 <text class="TextShape"><tspan class="TextParagraph" font-family="Arial" font-size="353px" font-weight="400"><tspan class="TextPosition" x="1665" y="7410"><tspan fill="rgb(0,0,0)" stroke="none">40</tspan></tspan></tspan></text>
 <text class="TextShape"><tspan class="TextParagraph" font-family="Arial" font-size="353px" font-weight="400"><tspan class="TextPosition" x="1665" y="5862"><tspan fill="rgb(0,0,0)" stroke="none">60</tspan></tspan></tspan></text>
 <text class="TextShape"><tspan class="TextParagraph" font-family="Arial" font-size="353px" font-weight="400"><tspan class="TextPosition" x="1665" y="4314"><tspan fill="rgb(0,0,0)" stroke="none">80</tspan></tspan></tspan></text>
 <text class="TextShape"><tspan class="TextParagraph" font-family="Arial" font-size="353px" font-weight="400"><tspan class="TextPosition" x="1479" y="2766"><tspan fill="rgb(0,0,0)" stroke="none">100</tspan></tspan></tspan></text>
 <text class="TextShape"><tspan class="TextParagraph" font-family="Arial" font-size="353px" font-weight="400"><tspan class="TextPosition" x="1479" y="1219"><tspan fill="rgb(0,0,0)" stroke="none">120</tspan></tspan></tspan></text>
 <path fill="rgb(0,69,134)" stroke="none" d="M 2547,10385 L 3073,10385 3073,9611 2547,9611 2547,10385 Z"/>
 <text class="TextShape"><tspan class="TextParagraph" font-family="Arial" font-size="353px" font-weight="400"><tspan class="TextPosition" x="28081" y="6569"><tspan fill="rgb(0,0,0)" stroke="none">Yhteensä</tspan></tspan></tspan></text>
 <path fill="rgb(0,69,134)" stroke="none" d="M 27876,6555 L 27770,6555 27770,6345 27981,6345 27981,6555 27876,6555 Z"/>
</svg>