<?xml version="1.0" encoding="UTF-8"?>
<!DOCTYPE svg PUBLIC "-//W3C//DTD SVG 1.1//EN" "http://www.w3.org/Graphics/SVG/1.1/DTD/svg11.dtd">
<svg width="201mm" height="108mm" viewBox="0 0 20100 10800">
 <path fill="rgb(255,255,255)" stroke="none" d="M 10076,10732 L 39,10732 39,-19 20112,-19 20112,10732 10076,10732 Z"/>
 <path fill="none" stroke="rgb(179,179,179)" stroke-linejoin="round" d="M 9263,8706 L 1882,8706 1882,1175 16643,1175 16643,8706 9263,8706 Z"/>
 <path fill="none" stroke="rgb(179,179,179)" stroke-linejoin="round" d="M 1882,1174 L 1882,8705"/>
 <path fill="none" stroke="rgb(179,179,179)" stroke-linejoin="round" d="M 2689,1174 L 2689,8705"/>
 <path fill="none" stroke="rgb(179,179,179)" stroke-linejoin="round" d="M 3496,1174 L 3496,8705"/>
 <path fill="none" stroke="rgb(179,179,179)" stroke-linejoin="round" d="M 4303,1174 L 4303,8705"/>
 <path fill="none" stroke="rgb(179,179,179)" stroke-linejoin="round" d="M 5111,1174 L 5111,8705"/>
 <path fill="none" stroke="rgb(179,179,179)" stroke-linejoin="round" d="M 5918,1174 L 5918,8705"/>
 <path fill="none" stroke="rgb(179,179,179)" stroke-linejoin="round" d="M 6725,1174 L 6725,8705"/>
 <path fill="none" stroke="rgb(179,179,179)" stroke-linejoin="round" d="M 7533,1174 L 7533,8705"/>
 <path fill="none" stroke="rgb(179,179,179)" stroke-linejoin="round" d="M 8340,1174 L 8340,8705"/>
 <path fill="none" stroke="rgb(179,179,179)" stroke-linejoin="round" d="M 9147,1174 L 9147,8705"/>
 <path fill="none" stroke="rgb(179,179,179)" stroke-linejoin="round" d="M 9954,1174 L 9954,8705"/>
 <path fill="none" stroke="rgb(179,179,179)" stroke-linejoin="round" d="M 10761,1174 L 10761,8705"/>
 <path fill="none" stroke="rgb(179,179,179)" stroke-linejoin="round" d="M 11568,1174 L 11568,8705"/>
 <path fill="none" stroke="rgb(179,179,179)" stroke-linejoin="round" d="M 12375,1174 L 12375,8705"/>
 <path fill="none" stroke="rgb(179,179,179)" stroke-linejoin="round" d="M 13183,1174 L 13183,8705"/>
 <path fill="none" stroke="rgb(179,179,179)" stroke-linejoin="round" d="M 13990,1174 L 13990,8705"/>
 <path fill="none" stroke="rgb(179,179,179)" stroke-linejoin="round" d="M 14797,1174 L 14797,8705"/>
 <path fill="none" stroke="rgb(179,179,179)" stroke-linejoin="round" d="M 15605,1174 L 15605,8705"/>
 <path fill="none" stroke="rgb(179,179,179)" stroke-linejoin="round" d="M 16412,1174 L 16412,8705"/>
 <path fill="none" stroke="rgb(179,179,179)" stroke-linejoin="round" d="M 16643,8705 L 1882,8705"/>
 <path fill="none" stroke="rgb(179,179,179)" stroke-linejoin="round" d="M 16643,7763 L 1882,7763"/>
 <path fill="none" stroke="rgb(179,179,179)" stroke-linejoin="round" d="M 16643,6822 L 1882,6822"/>
 <path fill="none" stroke="rgb(179,179,179)" stroke-linejoin="round" d="M 16643,5880 L 1882,5880"/>
 <path fill="none" stroke="rgb(179,179,179)" stroke-linejoin="round" d="M 16643,4940 L 1882,4940"/>
 <path fill="none" stroke="rgb(179,179,179)" stroke-linejoin="round" d="M 16643,3998 L 1882,3998"/>
 <path fill="none" stroke="rgb(179,179,179)" stroke-linejoin="round" d="M 16643,3057 L 1882,3057"/>
 <path fill="none" stroke="rgb(179,179,179)" stroke-linejoin="round" d="M 16643,2115 L 1882,2115"/>
 <path fill="none" stroke="rgb(179,179,179)" stroke-linejoin="round" d="M 16643,1174 L 1882,1174"/>
 <path fill="none" stroke="rgb(179,179,179)" stroke-linejoin="round" d="M 1882,8855 L 1882,8705"/>
 <path fill="none" stroke="rgb(179,179,179)" stroke-linejoin="round" d="M 1882,8855 L 1882,8705"/>
 <path fill="none" stroke="rgb(179,179,179)" stroke-linejoin="round" d="M 2689,8855 L 2689,8705"/>
 <path fill="none" stroke="rgb(179,179,179)" stroke-linejoin="round" d="M 2689,8855 L 2689,8705"/>
 <path fill="none" stroke="rgb(179,179,179)" stroke-linejoin="round" d="M 3496,8855 L 3496,8705"/>
 <path fill="none" stroke="rgb(179,179,179)" stroke-linejoin="round" d="M 3496,8855 L 3496,8705"/>
 <path fill="none" stroke="rgb(179,179,179)" stroke-linejoin="round" d="M 4303,8855 L 4303,8705"/>
 <path fill="none" stroke="rgb(179,179,179)" stroke-linejoin="round" d="M 4303,8855 L 4303,8705"/>
 <path fill="none" stroke="rgb(179,179,179)" stroke-linejoin="round" d="M 5111,8855 L 5111,8705"/>
 <path fill="none" stroke="rgb(179,179,179)" stroke-linejoin="round" d="M 5111,8855 L 5111,8705"/>
 <path fill="none" stroke="rgb(179,179,179)" stroke-linejoin="round" d="M 5918,8855 L 5918,8705"/>
 <path fill="none" stroke="rgb(179,179,179)" stroke-linejoin="round" d="M 5918,8855 L 5918,8705"/>
 <path fill="none" stroke="rgb(179,179,179)" stroke-linejoin="round" d="M 6725,8855 L 6725,8705"/>
 <path fill="none" stroke="rgb(179,179,179)" stroke-linejoin="round" d="M 6725,8855 L 6725,8705"/>
 <path fill="none" stroke="rgb(179,179,179)" stroke-linejoin="round" d="M 7533,8855 L 7533,8705"/>
 <path fill="none" stroke="rgb(179,179,179)" stroke-linejoin="round" d="M 7533,8855 L 7533,8705"/>
 <path fill="none" stroke="rgb(179,179,179)" stroke-linejoin="round" d="M 8340,8855 L 8340,8705"/>
 <path fill="none" stroke="rgb(179,179,179)" stroke-linejoin="round" d="M 8340,8855 L 8340,8705"/>
 <path fill="none" stroke="rgb(179,179,179)" stroke-linejoin="round" d="M 9147,8855 L 9147,8705"/>
 <path fill="none" stroke="rgb(179,179,179)" stroke-linejoin="round" d="M 9147,8855 L 9147,8705"/>
 <path fill="none" stroke="rgb(179,179,179)" stroke-linejoin="round" d="M 9954,8855 L 9954,8705"/>
 <path fill="none" stroke="rgb(179,179,179)" stroke-linejoin="round" d="M 9954,8855 L 9954,8705"/>
 <path fill="none" stroke="rgb(179,179,179)" stroke-linejoin="round" d="M 10761,8855 L 10761,8705"/>
 <path fill="none" stroke="rgb(179,179,179)" stroke-linejoin="round" d="M 10761,8855 L 10761,8705"/>
 <path fill="none" stroke="rgb(179,179,179)" stroke-linejoin="round" d="M 11568,8855 L 11568,8705"/>
 <path fill="none" stroke="rgb(179,179,179)" stroke-linejoin="round" d="M 11568,8855 L 11568,8705"/>
 <path fill="none" stroke="rgb(179,179,179)" stroke-linejoin="round" d="M 12375,8855 L 12375,8705"/>
 <path fill="none" stroke="rgb(179,179,179)" stroke-linejoin="round" d="M 12375,8855 L 12375,8705"/>
 <path fill="none" stroke="rgb(179,179,179)" stroke-linejoin="round" d="M 13183,8855 L 13183,8705"/>
 <path fill="none" stroke="rgb(179,179,179)" stroke-linejoin="round" d="M 13183,8855 L 13183,8705"/>
 <path fill="none" stroke="rgb(179,179,179)" stroke-linejoin="round" d="M 13990,8855 L 13990,8705"/>
 <path fill="none" stroke="rgb(179,179,179)" stroke-linejoin="round" d="M 13990,8855 L 13990,8705"/>
 <path fill="none" stroke="rgb(179,179,179)" stroke-linejoin="round" d="M 14797,8855 L 14797,8705"/>
 <path fill="none" stroke="rgb(179,179,179)" stroke-linejoin="round" d="M 14797,8855 L 14797,8705"/>
 <path fill="none" stroke="rgb(179,179,179)" stroke-linejoin="round" d="M 15605,8855 L 15605,8705"/>
 <path fill="none" stroke="rgb(179,179,179)" stroke-linejoin="round" d="M 15605,8855 L 15605,8705"/>
 <path fill="none" stroke="rgb(179,179,179)" stroke-linejoin="round" d="M 16412,8855 L 16412,8705"/>
 <path fill="none" stroke="rgb(179,179,179)" stroke-linejoin="round" d="M 16412,8855 L 16412,8705"/>
 <path fill="none" stroke="rgb(179,179,179)" stroke-linejoin="round" d="M 1882,8705 L 16643,8705"/>
 <path fill="none" stroke="rgb(179,179,179)" stroke-linejoin="round" d="M 1732,8705 L 1882,8705"/>
 <path fill="none" stroke="rgb(179,179,179)" stroke-linejoin="round" d="M 1732,8705 L 1882,8705"/>
 <path fill="none" stroke="rgb(179,179,179)" stroke-linejoin="round" d="M 1732,7763 L 1882,7763"/>
 <path fill="none" stroke="rgb(179,179,179)" stroke-linejoin="round" d="M 1732,7763 L 1882,7763"/>
 <path fill="none" stroke="rgb(179,179,179)" stroke-linejoin="round" d="M 1732,6822 L 1882,6822"/>
 <path fill="none" stroke="rgb(179,179,179)" stroke-linejoin="round" d="M 1732,6822 L 1882,6822"/>
 <path fill="none" stroke="rgb(179,179,179)" stroke-linejoin="round" d="M 1732,5880 L 1882,5880"/>
 <path fill="none" stroke="rgb(179,179,179)" stroke-linejoin="round" d="M 1732,5880 L 1882,5880"/>
 <path fill="none" stroke="rgb(179,179,179)" stroke-linejoin="round" d="M 1732,4940 L 1882,4940"/>
 <path fill="none" stroke="rgb(179,179,179)" stroke-linejoin="round" d="M 1732,4940 L 1882,4940"/>
 <path fill="none" stroke="rgb(179,179,179)" stroke-linejoin="round" d="M 1732,3998 L 1882,3998"/>
 <path fill="none" stroke="rgb(179,179,179)" stroke-linejoin="round" d="M 1732,3998 L 1882,3998"/>
 <path fill="none" stroke="rgb(179,179,179)" stroke-linejoin="round" d="M 1732,3057 L 1882,3057"/>
 <path fill="none" stroke="rgb(179,179,179)" stroke-linejoin="round" d="M 1732,3057 L 1882,3057"/>
 <path fill="none" stroke="rgb(179,179,179)" stroke-linejoin="round" d="M 1732,2115 L 1882,2115"/>
 <path fill="none" stroke="rgb(179,179,179)" stroke-linejoin="round" d="M 1732,2115 L 1882,2115"/>
 <path fill="none" stroke="rgb(179,179,179)" stroke-linejoin="round" d="M 1732,1174 L 1882,1174"/>
 <path fill="none" stroke="rgb(179,179,179)" stroke-linejoin="round" d="M 1732,1174 L 1882,1174"/>
 <path fill="none" stroke="rgb(179,179,179)" stroke-linejoin="round" d="M 1882,8705 L 1882,1174"/>
 <path fill="none" stroke="rgb(0,69,134)" stroke-width="80" stroke-linejoin="round" d="M 1939,8391 L 1939,8365 2400,8344 2400,8329 2400,8325 2516,8300 2516,8196 2746,8211 2862,8211 2862,8207 2977,8238 2977,8219 2977,8106 2977,8219 2977,8106 3092,8099 3208,8033 3208,8022 3323,8022 3438,7978 3438,7849 3438,7771 3900,7771 3900,7845 3900,7767 3900,7866 4015,7866 4015,7912 4015,7852 4015,7901 4015,7889 4015,7852 4015,7839 4015,7838 4130,7838 4246,7861 4246,7834 4361,7837 4361,7832 4361,7814 4592,7831 4592,7838 4592,7813 4592,7809 4592,7819 4592,7809 4592,7754 4592,7809 4592,7754 4592,7826 4592,7766 4592,7809 4592,7766 4592,7773 4592,7776 4592,7774 4592,7809 4592,7770 4592,7769 4707,7764 4707,7762 4707,7731 4707,7700 4707,7727 4707,7665 4707,7700 4707,7761 4707,7662 4822,7662 5053,7755 5053,7658 5399,7660 5514,7660 5745,7660 5745,7654 5745,7593 5745,7656 5745,7590 5745,7629 5860,7626 5976,7626 6322,7626 6322,7608 6437,7608 6437,7590 6437,7546 6437,7608 6437,7546 6437,7608 6437,7544 6437,7608 6437,7544 6437,7585 6437,7532 6437,7585 6437,7532 6437,7585 6552,7585 6552,7577 6552,7546 6552,7533 6552,7532 6552,7500 7014,7574 7014,7568 7014,7486 7014,7409 7014,7493 7014,7325 7129,7324 7129,7346 7129,7342 7129,7392 7129,7342 7129,7338 7129,7384 7129,7338 7244,7373 7360,7381 7360,7309 7360,7323 7360,7332 7360,7239 7360,7186 7360,7309 7360,7186 7360,7157 7475,7037 7475,7239 7475,7037 7475,7046 8167,7046 8282,7178 8398,7337 8398,7043 8628,7043 8859,7046 8974,7043 8974,7431 8974,7450 8974,7043 9435,7385 9435,7046 9435,7450 9435,7462 9435,7456 9551,7460 9551,7457 9666,7454 10126,7449 10126,7395 10126,7330 10126,7324 10126,7371 10242,7324 10242,7286 10242,7373 10357,7373 10357,7288 10357,7281 10357,7288 10357,7281 10472,7248 10472,7246 10472,7373 10472,7176 10472,7154 10472,7173 10472,7373 10472,7147 10588,7149 10588,7140 10588,7133 10588,7151 10588,7105 10934,7093 11049,7093 11164,7093 11280,7093 11395,7373 11395,7173 11395,7093 11510,7093 11626,7093 11856,7092 12664,7092 12779,7092 12779,7083 12779,7078 12894,7078 13240,7078 13817,7078 13817,7052 13817,7000 13817,6999 13932,6959 13932,6905 13932,6857 14048,6821 14048,6817 14163,6817 14278,6748 14278,6687 14278,6817 14278,6687 14278,6743 14394,6746 14394,6706 14394,6816 14509,6816 14509,6705 14509,6704 14624,6703 14855,6703 14970,6703 14970,6706 14970,6698 15086,6698 15086,6576 15086,6563 15201,6563 15201,6558 15316,6559 15316,6548 15432,6555 15432,6515 15547,6515 15547,6550 15662,6550 15662,6497 15662,6494 15662,6450 15662,6422 15778,6421 15778,6419 15778,6362 15778,6359 15778,6363 15778,6329 15893,6291 15893,6264 15893,6162 16008,6162 16008,6710 16008,6162 16008,6162 16008,6162 16008,6072 16008,6067 16008,6057 16008,6053 16124,6162 16124,6049 16124,6151 16124,6061 16124,6056 16124,6046 16124,6042 16124,6007 16124,5937 16124,5918 16239,5918 16239,5904 16239,5900 16239,5896 16239,5892 16354,5892 16585,5857 16585,5807"/>
 <path fill="none" stroke="rgb(255,66,14)" stroke-width="80" stroke-linejoin="round" d="M 1939,8682 L 2400,8682 2400,8611 2400,8530 2516,8530 2746,8530 2862,8528 2862,8470 2862,8458 2862,8446 2862,8415 2977,8415 3092,8386 3092,8350 3208,8350 3323,8349 3438,8349 3900,8348 3900,8313 4015,8348 4015,8268 4015,8348 4015,8268 4015,8234 4130,8228 4246,8348 4246,8228 4361,8228 4592,8228 4592,8256 4592,8219 4592,8227 4592,8173 4592,8191 4592,8168 4592,8191 4592,8223 4592,8187 4592,8159 4592,8164 4592,8178 4592,8140 4592,8090 4592,8074 4592,8164 4592,8074 4592,8061 4707,8061 4707,8025 4707,8015 4707,7979 4707,8009 4707,8061 4707,7979 4822,7963 4822,7962 5053,8061 5053,7979 5053,7962 5399,7961 5514,7961 5745,7948 5745,7957 5745,7939 5745,7926 5745,7939 5745,7926 5745,8284 5860,8284 5976,8291 6322,8291 6322,8290 6322,8274 6437,8274 6437,8260 6437,8274 6437,8251 6437,8260 6437,8246 6437,8274 6437,8246 6437,8261 6437,8246 6437,8236 6437,8240 6437,8235 6437,8217 6437,8233 6437,8217 6437,8150 6437,8233 6437,8150 6552,8150 6552,8174 6552,8161 6552,8136 6552,8115 6552,8274 6552,8258 6552,8235 6552,8230 6552,8220 6552,8201 6552,8191 6552,8032 7014,8114 7014,7961 7014,7923 7014,7915 7129,7915 7129,7951 7129,7955 7129,7900 7129,8086 7129,7901 7129,8086 7129,7902 7244,8086 7360,8086 7360,7874 7360,7902 7360,7801 7360,7901 7360,7800 7360,7787 7475,7787 7475,7864 7475,7750 7475,7747 7475,7741 8167,7740 8167,7723 8167,7734 8167,7717 8167,7713 8167,7861 8167,7713 8282,7740 8398,7902 8398,7713 8628,7713 8859,7827 8974,7713 8974,7740 8974,7713 9435,7740 9435,7813 9435,7921 9551,7917 9551,7920 9666,7920 10126,7920 10242,7920 10242,7900 10242,7920 10357,7914 10357,7916 10357,7908 10357,7900 10472,7903 10472,7908 10472,7900 10472,7888 10472,7885 10472,7876 10472,7870 10472,7881 10472,7862 10588,7862 10934,7852 10934,7826 11049,7826 11164,7809 11280,7749 11395,7853 11395,7838 11395,7833 11395,7806 11395,7669 11395,7660 11510,7660 11510,7608 11510,7609 11510,7605 11510,7601 11626,7660 11626,7602 11626,7534 11626,7546 11856,7546 12664,7546 12664,7537 12664,7530 12664,7526 12664,7529 12664,7481 12664,7505 12779,7491 12779,7484 12894,7406 12894,7364 12894,7339 13240,7341 13240,7328 13817,7328 13817,7359 13817,7320 13817,7260 13817,7264 13932,7241 13932,7215 13932,7191 14048,7173 14048,7165 14048,7105 14048,7099 14163,7068 14163,7099 14278,7099 14278,7059 14278,7005 14278,6985 14278,6934 14278,6952 14278,6944 14278,6949 14278,6935 14278,6939 14278,6870 14278,6873 14278,7059 14278,7048 14278,7014 14394,7014 14394,6950 14394,6872 14509,6872 14509,6852 14509,6705 14509,6693 14624,6687 14855,6687 14970,6687 14970,6660 14970,6655 15086,6652 15086,6660 15086,6654 15201,6654 15316,6654 15316,6643 15432,6625 15432,6620 15432,6617 15432,6609 15432,6601 15432,6577 15547,6577 15547,6508 15662,6508 15662,6495 15662,6398 15662,6439 15662,6435 15778,6421 15778,6417 15778,6427 15778,6459 15778,6428 15893,6382 15893,6353 16008,6336 16008,6628 16008,6332 16008,6336 16008,6316 16008,6335 16008,6302 16008,6300 16124,6321 16124,6285 16124,6336 16124,6332 16124,6316 16124,6282 16239,6227 16239,6218 16239,6209 16239,6197 16239,6189 16239,6178 16239,6186 16239,6165 16239,6147 16354,6147 16354,6089 16354,6150 16354,6143 16354,6137 16585,6098 16585,6088"/>
 <path fill="none" stroke="rgb(255,211,32)" stroke-width="80" stroke-linejoin="round" d="M 1939,8704 L 2400,8704 2400,8671 2400,8667 2400,8640 2400,8642 2516,8642 2746,8642 2862,8641 2862,8620 2862,8612 2862,8615 2862,8601 2977,8588 2977,8543 3092,8527 3092,8523 3092,8527 3208,8527 3208,8520 3208,8529 3323,8497 3323,8507 3438,8497 3438,8507 3900,8507 3900,8490 4015,8507 4015,8449 4015,8507 4015,8449 4015,8444 4015,8431 4130,8431 4130,8198 4246,8507 4246,8198 4361,8198 4592,8198 4592,8446 4592,8194 4592,8175 4592,8172 4592,8175 4592,8172 4592,8175 4592,8164 4592,8141 4592,8172 4592,8146 4592,8133 4592,8262 4592,8172 4592,8236 4592,8133 4592,8234 4707,8236 4707,8229 4707,8200 4707,8236 4707,8229 4822,8193 4822,8220 5053,8236 5053,8238 5053,8231 5053,8220 5399,8220 5514,8220 5745,8223 5745,8241 5745,8232 5745,8278 5745,8270 5860,8270 5976,8270 6322,8262 6322,8270 6437,8270 6437,8268 6437,8277 6437,8270 6437,8266 6437,8270 6437,8269 6437,8274 6437,8222 6437,8261 6437,8243 6437,8222 6437,8217 6437,8302 6437,8217 6437,8302 6552,8221 6552,8209 6552,8164 6552,8137 6552,8270 6552,8269 6552,8222 6552,8221 6552,8186 6552,8052 7014,8133 7014,8051 7014,8047 7129,8045 7129,7970 7129,7957 7129,7927 7129,7921 7129,7927 7129,8130 7129,7927 7129,8130 7129,7927 7244,8130 7360,8130 7360,7924 7360,7927 7360,7961 7360,7927 7360,7757 7360,7961 7360,7791 7360,7784 7475,7784 7475,7960 7475,7783 8167,7783 8167,7787 8167,7703 8167,7801 8167,7703 8282,7783 8398,7927 8398,7703 8628,7703 8859,7798 8974,7703 8974,7783 8974,7703 9435,7783 9435,7796 9551,7778 9551,7772 9551,7688 9666,7688 10126,7688 10242,7688 10357,7689 10357,7687 10357,7660 10357,7622 10472,7622 10472,7691 10472,7623 10472,7626 10472,7683 10472,7626 10588,7626 10934,7623 10934,7653 11049,7690 11164,7690 11164,7696 11280,7906 11395,7668 11395,7666 11395,7709 11395,7740 11395,7675 11395,7956 11510,7959 11510,7917 11510,7937 11510,7984 11510,7968 11626,7955 11626,7968 11626,7964 11856,7964 12664,7964 12664,7957 12664,7958 12779,7957 12894,7962 12894,7956 13240,7956 13817,7956 13817,7928 13817,7896 13932,7882 13932,7872 13932,7868 14048,7868 14163,7864 14163,7868 14278,7868 14278,7850 14278,7854 14278,7832 14278,7817 14278,7822 14278,7825 14278,7850 14278,7809 14394,7809 14394,7795 14394,7825 14509,7835 14509,7815 14509,7824 14509,7750 14509,7747 14624,7747 14855,7747 14970,7747 14970,7749 15086,7749 15201,7749 15201,7747 15316,7745 15316,7735 15432,7709 15432,7683 15547,7683 15547,7656 15662,7656 15662,7661 15662,7644 15662,7648 15778,7648 15778,7664 15778,7640 15893,7602 15893,7534 15893,7532 15893,7533 16008,7533 16008,7735 16008,7533 16008,7510 16008,7496 16008,7494 16008,7440 16124,7533 16124,7440 16124,7533 16124,7510 16124,7496 16124,7494 16124,7440 16239,7433 16239,7429 16239,7421 16239,7369 16239,7357 16354,7357 16354,7345 16354,7357 16354,7353 16354,7356 16585,7340 16585,7335"/>
 <path fill="none" stroke="rgb(87,157,28)" stroke-width="80" stroke-linejoin="round" d="M 1939,8367 L 1939,8341 2400,8320 2400,8305 2400,8202 2400,8198 2400,8113 2400,8086 2400,8089 2516,8063 2516,7960 2746,7975 2746,7973 2862,7972 2862,7892 2862,7872 2862,7859 2862,7815 2977,7833 2977,7813 2977,7700 2977,7767 2977,7654 3092,7604 3092,7567 3092,7562 3092,7567 3208,7501 3208,7490 3208,7482 3208,7491 3323,7459 3323,7467 3438,7415 3438,7423 3438,7294 3438,7216 3900,7216 3900,7290 3900,7212 3900,7311 3900,7259 4015,7311 4015,7357 4015,7160 4015,7347 4015,7197 4015,7159 4015,7147 4015,7145 4015,7139 4015,7095 4130,7088 4130,6855 4246,7306 4246,6851 4361,6854 4361,6849 4361,6831 4592,6848 4592,6855 4592,7131 4592,6841 4592,6817 4592,6812 4592,6744 4592,6711 4592,6740 4592,6711 4592,6805 4592,6685 4592,6731 4592,6667 4592,6675 4592,6661 4592,6664 4592,6806 4592,6711 4592,6686 4592,6670 4592,6657 4592,6662 4592,6652 4707,6652 4707,6650 4707,6619 4707,6551 4707,6563 4707,6464 4707,6500 4707,6649 4707,6461 4822,6409 4822,6435 5053,6644 5053,6645 5053,6459 5053,6431 5053,6430 5399,6432 5514,6432 5745,6422 5745,6447 5745,6416 5745,6408 5745,6355 5745,6408 5745,6807 5745,6742 5745,6774 5860,6771 5976,6778 6322,6770 6322,6751 6322,6735 6322,6743 6437,6743 6437,6741 6437,6718 6437,6682 6437,6658 6437,6725 6437,6652 6437,6743 6437,6649 6437,6725 6437,6719 6437,6592 6437,6677 6437,6672 6437,6653 6437,6630 6437,6626 6437,6561 6437,6626 6437,6561 6437,6628 6552,6547 6552,6571 6552,6547 6552,6467 6552,6468 6552,6419 6552,6682 6552,6666 6552,6642 6552,6636 6552,6579 6552,6546 6552,6500 6552,6500 6552,6176 7014,6412 7014,6406 7014,6324 7014,6247 7014,6096 7014,5924 7014,5886 7014,5877 7129,5874 7129,5802 7129,5839 7129,5842 7129,5827 7129,5797 7129,5737 7129,5743 7129,5765 7129,5761 7129,6199 7129,5761 7129,5758 7129,5759 7129,5758 7129,5759 7129,6191 7129,5759 7244,6180 7360,6188 7360,5698 7360,5743 7360,5752 7360,5659 7360,5692 7360,5606 7360,5458 7360,5639 7360,5340 7360,5320 7475,5200 7475,5653 7475,5162 7475,5167 7475,5162 8167,5161 8167,5165 8167,5149 8167,5074 8167,5057 8167,5053 8167,5299 8167,5052 8282,5294 8398,5757 8398,5051 8628,5051 8859,5262 8974,5051 8974,5545 8974,5565 8974,5051 9435,5499 9435,5246 9435,5355 9435,5759 9435,5770 9435,5764 9551,5746 9551,5741 9551,5653 9666,5653 10126,5648 10126,5594 10126,5529 10126,5523 10126,5570 10242,5523 10242,5485 10242,5463 10242,5572 10357,5566 10357,5563 10357,5466 10357,5458 10357,5443 10357,5436 10357,5397 10472,5364 10472,5358 10472,5563 10472,5291 10472,5260 10472,5257 10472,5276 10472,5273 10472,5523 10472,5514 10472,5245 10472,5227 10588,5229 10588,5219 10588,5213 10588,5230 10588,5233 10588,5184 10588,5183 10934,5159 10934,5164 11049,5200 11164,5183 11164,5190 11280,5340 11395,5486 11395,5469 11395,5510 11395,5537 11395,5246 11395,5310 11395,5300 11510,5304 11510,5210 11510,5230 11510,5227 11510,5269 11510,5271 11510,5254 11626,5300 11626,5254 11626,5182 11626,5194 11856,5194 12664,5194 12664,5185 12664,5170 12664,5166 12664,5170 12664,5122 12664,5147 12779,5132 12779,5124 12779,5115 12779,5113 12894,5037 12894,4995 12894,4965 13240,4967 13240,4954 13817,4954 13817,4985 13817,4891 13817,4748 13817,4751 13932,4674 13932,4585 13932,4508 14048,4454 14048,4445 14048,4383 14048,4377 14163,4341 14163,4376 14278,4307 14278,4187 14278,4268 14278,4245 14278,4174 14278,4193 14278,4184 14278,4160 14278,4157 14278,4169 14278,4103 14278,4106 14278,4187 14278,4244 14278,4233 14278,4161 14394,4161 14394,4084 14394,4044 14394,4105 14509,4115 14509,4074 14509,4084 14509,3751 14509,3735 14624,3729 14855,3729 14970,3729 14970,3725 14970,3704 14970,3699 14970,3694 15086,3691 15086,3576 15086,3563 15086,3557 15201,3557 15201,3555 15201,3549 15201,3550 15316,3550 15316,3518 15432,3481 15432,3476 15432,3473 15432,3469 15432,3461 15432,3453 15432,3366 15547,3366 15547,3306 15662,3306 15662,3312 15662,3258 15662,3242 15662,3128 15662,3098 15662,3092 15778,3083 15778,3076 15778,3028 15778,3029 15778,3026 15778,3074 15778,3079 15778,2989 15893,2867 15893,2768 15893,2639 16008,2623 16008,3666 16008,2620 16008,2622 16008,2604 16008,2622 16008,2476 16008,2457 16008,2398 16008,2389 16008,2385 16008,2381 16124,2608 16124,2366 16124,2612 16124,2608 16124,2592 16124,2445 16124,2426 16124,2367 16124,2358 16124,2354 16124,2350 16124,2355 16124,2324 16124,2320 16124,2251 16124,2231 16239,2170 16239,2156 16239,2147 16239,2146 16239,2133 16239,2126 16239,2110 16239,2102 16239,2091 16239,2046 16239,2026 16239,2022 16239,1989 16354,1989 16354,1918 16354,1992 16354,1988 16354,1991 16354,1979 16354,1983 16354,1978 16354,1980 16585,1888 16585,1880 16585,1821"/>
 <text class="TextShape"><tspan class="TextParagraph" font-family="Arial, sans-serif" font-size="353px" font-weight="400"><tspan class="TextPosition" x="1447" y="8826"><tspan fill="rgb(0,0,0)" stroke="none">0</tspan></tspan></tspan></text>
 <text class="TextShape"><tspan class="TextParagraph" font-family="Arial, sans-serif" font-size="353px" font-weight="400"><tspan class="TextPosition" x="891" y="7884"><tspan fill="rgb(0,0,0)" stroke="none">1000</tspan></tspan></tspan></text>
 <text class="TextShape"><tspan class="TextParagraph" font-family="Arial, sans-serif" font-size="353px" font-weight="400"><tspan class="TextPosition" x="891" y="6943"><tspan fill="rgb(0,0,0)" stroke="none">2000</tspan></tspan></tspan></text>
 <text class="TextShape"><tspan class="TextParagraph" font-family="Arial, sans-serif" font-size="353px" font-weight="400"><tspan class="TextPosition" x="891" y="6001"><tspan fill="rgb(0,0,0)" stroke="none">3000</tspan></tspan></tspan></text>
 <text class="TextShape"><tspan class="TextParagraph" font-family="Arial, sans-serif" font-size="353px" font-weight="400"><tspan class="TextPosition" x="891" y="5060"><tspan fill="rgb(0,0,0)" stroke="none">4000</tspan></tspan></tspan></text>
 <text class="TextShape"><tspan class="TextParagraph" font-family="Arial, sans-serif" font-size="353px" font-weight="400"><tspan class="TextPosition" x="891" y="4118"><tspan fill="rgb(0,0,0)" stroke="none">5000</tspan></tspan></tspan></text>
 <text class="TextShape"><tspan class="TextParagraph" font-family="Arial, sans-serif" font-size="353px" font-weight="400"><tspan class="TextPosition" x="891" y="3177"><tspan fill="rgb(0,0,0)" stroke="none">6000</tspan></tspan></tspan></text>
 <text class="TextShape"><tspan class="TextParagraph" font-family="Arial, sans-serif" font-size="353px" font-weight="400"><tspan class="TextPosition" x="891" y="2235"><tspan fill="rgb(0,0,0)" stroke="none">7000</tspan></tspan></tspan></text>
 <text class="TextShape"><tspan class="TextParagraph" font-family="Arial, sans-serif" font-size="353px" font-weight="400"><tspan class="TextPosition" x="891" y="1294"><tspan fill="rgb(0,0,0)" stroke="none">8000</tspan></tspan></tspan></text>
 <path fill="none" stroke="rgb(0,69,134)" stroke-width="80" stroke-linejoin="round" d="M 17561,4609 L 18361,4609"/>
 <path fill="none" stroke="rgb(255,66,14)" stroke-width="80" stroke-linejoin="round" d="M 17561,5107 L 18361,5107"/>
 <path fill="none" stroke="rgb(255,211,32)" stroke-width="80" stroke-linejoin="round" d="M 17561,5604 L 18361,5604"/>
 <path fill="none" stroke="rgb(87,157,28)" stroke-width="80" stroke-linejoin="round" d="M 17561,6102 L 18361,6102"/>
 <text class="TextShape"><tspan class="TextParagraph" font-family="Arial, sans-serif" font-size="353px" font-weight="400"><tspan class="TextPosition" x="18461" y="4729"><tspan fill="rgb(0,0,0)" stroke="none">backend</tspan></tspan></tspan></text>
 <text class="TextShape"><tspan class="TextParagraph" font-family="Arial, sans-serif" font-size="353px" font-weight="400"><tspan class="TextPosition" x="18461" y="5227"><tspan fill="rgb(0,0,0)" stroke="none">frontend</tspan></tspan></tspan></text>
 <text class="TextShape"><tspan class="TextParagraph" font-family="Arial, sans-serif" font-size="353px" font-weight="400"><tspan class="TextPosition" x="18461" y="5724"><tspan fill="rgb(0,0,0)" stroke="none">template</tspan></tspan></tspan></text>
 <text class="TextShape"><tspan class="TextParagraph" font-family="Arial, sans-serif" font-size="353px" font-weight="400"><tspan class="TextPosition" x="18461" y="6222"><tspan fill="rgb(0,0,0)" stroke="none">total</tspan></tspan></tspan></text>
</svg>